<svg width="26" height="26" viewBox="0 0 26 26" fill="#000" xmlns="http://www.w3.org/2000/svg">
<path d="M25.5311 15.7565L22.8342 14.2291C22.6853 14.1437 22.563 14.0198 22.4807 13.871C22.3984 13.7221 22.3593 13.554 22.3675 13.3849C22.373 13.2577 22.3758 13.1297 22.3758 13.0008C22.3758 12.8425 22.3716 12.685 22.3632 12.5283C22.3534 12.3583 22.3917 12.189 22.474 12.0391C22.5562 11.8892 22.6791 11.7646 22.8291 11.6791L25.5315 10.1466C25.6381 10.0862 25.7315 10.0057 25.8065 9.90982C25.8814 9.81392 25.9363 9.70447 25.9682 9.58773C26 9.47098 26.0081 9.34922 25.992 9.2294C25.9759 9.10958 25.936 8.99405 25.8744 8.88939L23.0615 4.10829C22.9372 3.89696 22.7325 3.74274 22.4925 3.67955C22.2524 3.61635 21.9966 3.64936 21.7813 3.7713L19.0773 5.30492C18.9267 5.38973 18.7552 5.43193 18.5817 5.42682C18.4081 5.42171 18.2395 5.36949 18.0943 5.27597C17.8269 5.1057 17.5506 4.94915 17.2667 4.80696C17.112 4.7303 16.9819 4.61309 16.8908 4.46831C16.7998 4.32354 16.7513 4.15684 16.7508 3.9867V0.920243C16.7507 0.67621 16.6519 0.442203 16.4762 0.269645C16.3004 0.0970882 16.062 0.000102298 15.8135 0H10.1885C9.93989 0 9.70147 0.0969541 9.52568 0.269533C9.34989 0.442113 9.25113 0.676179 9.25113 0.920243V3.984C9.25081 4.15468 9.20232 4.32193 9.11105 4.4672C9.01979 4.61247 8.8893 4.73008 8.73409 4.80696C8.47484 4.93718 8.22294 5.07872 7.97838 5.23158C7.83353 5.32301 7.6659 5.37366 7.49375 5.37802C7.32161 5.38237 7.15154 5.34027 7.00209 5.25628L4.2191 3.67751C4.00374 3.55554 3.74787 3.52253 3.50773 3.58572C3.26759 3.64891 3.06283 3.80314 2.93848 4.01449L0.125611 8.79482C0.0640452 8.89949 0.0240866 9.01505 0.00801774 9.13489C-0.00805114 9.25472 8.52309e-05 9.37649 0.0319606 9.49324C0.0638359 9.60999 0.118827 9.71943 0.193792 9.81532C0.268757 9.9112 0.362227 9.99164 0.468865 10.0521L3.16653 11.5818C3.31912 11.6667 3.44457 11.7917 3.52882 11.9427C3.61306 12.0938 3.65277 12.2649 3.64347 12.4368C3.63194 12.6234 3.6263 12.8115 3.62656 13.0012C3.62656 13.1594 3.6305 13.3168 3.63836 13.4732C3.64772 13.6429 3.60915 13.8117 3.52693 13.9611C3.44472 14.1106 3.32203 14.2348 3.17243 14.3202L0.469258 15.8522C0.36262 15.9126 0.26915 15.9931 0.194185 16.089C0.11922 16.1848 0.0642289 16.2943 0.0323536 16.411C0.000478204 16.5278 -0.00765816 16.6495 0.00841071 16.7694C0.0244796 16.8892 0.0644382 17.0048 0.126004 17.1094L2.93848 21.8917C3.00002 21.9964 3.08196 22.0882 3.17962 22.1618C3.27729 22.2354 3.38877 22.2893 3.50769 22.3206C3.62661 22.3519 3.75064 22.3599 3.87271 22.3441C3.99478 22.3284 4.11248 22.2891 4.2191 22.2287L6.92149 20.697C7.07207 20.6122 7.24363 20.5701 7.41714 20.5752C7.59065 20.5803 7.75932 20.6325 7.90446 20.726C8.17366 20.8975 8.45161 21.0555 8.73723 21.1992C8.89159 21.276 9.02133 21.3932 9.11215 21.5378C9.20297 21.6824 9.25134 21.8488 9.25192 22.0187V25.0798C9.25192 25.3238 9.35067 25.5579 9.52646 25.7305C9.70225 25.903 9.94067 26 10.1893 26H15.8131C16.0617 26 16.3001 25.903 16.4759 25.7305C16.6517 25.5579 16.7504 25.3238 16.7504 25.0798V22.0187C16.7513 21.8477 16.8003 21.6803 16.8921 21.5349C16.984 21.3896 17.1149 21.2721 17.2706 21.1954C17.5774 21.0413 17.8753 20.8705 18.1628 20.6839C18.3087 20.5872 18.4793 20.5325 18.6552 20.5261C18.8311 20.5196 19.0054 20.5615 19.1583 20.6472L21.7813 22.133C21.9966 22.2549 22.2525 22.2879 22.4926 22.2248C22.7328 22.1616 22.9375 22.0073 23.0619 21.796L25.8744 17.0137C25.9986 16.8023 26.0322 16.5511 25.9679 16.3153C25.9035 16.0796 25.7464 15.8786 25.5311 15.7565ZM13.0745 16.4899C12.357 16.4899 11.6557 16.281 11.0591 15.8897C10.4626 15.4984 9.99763 14.9422 9.72307 14.2914C9.44851 13.6407 9.37667 12.9246 9.51664 12.2338C9.65661 11.543 10.0021 10.9084 10.5094 10.4104C11.0168 9.9123 11.6631 9.57312 12.3668 9.4357C13.0705 9.29829 13.7999 9.36881 14.4627 9.63836C15.1256 9.90791 15.6921 10.3644 16.0907 10.95C16.4893 11.5357 16.7021 12.2242 16.7021 12.9286C16.7016 13.8728 16.3193 14.7783 15.639 15.4458C14.9588 16.1134 14.0363 16.4884 13.0745 16.4884V16.4899Z" fill="#000"/>
</svg>
